<svg xmlns="http://www.w3.org/2000/svg" data-name="Layer 1" viewBox="0 0 95 118.75" x="0px" y="0px">
  <defs>
    <style>
      .cls-1 {
        fill-rule: evenodd;
        stroke-width: 0px;
        fill: currentColor;
      }
    </style>
  </defs>
  <path class="cls-1"
    d="m23.92,41.41c-.06.09-.12.19-.18.29h0s0,0,0,0c-.03.06-.06.11-.1.17-.62,1.17-.73,2.48-.41,3.66.32,1.17,1.08,2.21,2.2,2.86.05.03.11.06.16.09.51.27.71.91.44,1.42-.2.38-.6.59-1,.56h-.16c-1.3,0-2.47.53-3.34,1.38-.87.86-1.43,2.05-1.48,3.37v.41c.05,1.32.61,2.51,1.48,3.37.86.85,2.04,1.38,3.34,1.38h.19c.58-.02,1.07.43,1.09,1.01.01.42-.22.79-.56.97h0c-.08.05-.14.07-.16.09h0c-1.12.65-1.88,1.69-2.2,2.86-.32,1.18-.21,2.49.41,3.66.03.06.06.12.1.17.04.07.07.13.1.17.71,1.12,1.78,1.87,2.96,2.18,1.18.31,2.46.18,3.58-.47h0c.06-.04.12-.07.16-.1.49-.31,1.14-.16,1.45.33.23.36.21.8,0,1.14-.03.04-.06.09-.09.15l-.03.05c-.62,1.11-.74,2.37-.44,3.53.31,1.18,1.06,2.26,2.18,2.96.05.03.11.06.17.1l.04.02.13.07c1.17.62,2.48.73,3.66.41,1.17-.32,2.21-1.08,2.86-2.2l.02-.04.07-.12c.27-.51.91-.71,1.42-.44.38.2.58.6.56,1v.16c0,1.3.53,2.47,1.38,3.34.86.87,2.05,1.43,3.37,1.48h.41c1.32-.05,2.51-.61,3.37-1.48.85-.86,1.38-2.04,1.38-3.34v-.19c-.02-.58.43-1.07,1.01-1.09.42-.01.79.22.97.56h0c.04.08.07.14.09.16h0c.65,1.12,1.69,1.88,2.86,2.2,1.18.32,2.49.21,3.66-.41.06-.03.12-.06.17-.1.07-.04.13-.07.17-.1,1.12-.71,1.87-1.78,2.18-2.96.31-1.18.18-2.46-.47-3.58h0c-.04-.06-.07-.12-.1-.16-.31-.49-.16-1.14.33-1.45.36-.23.8-.21,1.14,0,.04.03.09.06.15.09l.05.03c1.11.62,2.37.74,3.53.44,1.18-.31,2.26-1.06,2.96-2.18.03-.05.06-.11.1-.17l.02-.04.07-.13c.62-1.17.73-2.48.41-3.66-.32-1.17-1.08-2.21-2.2-2.86l-.04-.02-.12-.07c-.51-.27-.71-.91-.44-1.42.2-.38.6-.59,1-.56h.16c1.3,0,2.47-.52,3.34-1.38.87-.86,1.43-2.05,1.48-3.37v-.41c-.05-1.32-.61-2.51-1.48-3.37-.86-.85-2.04-1.38-3.34-1.38h-.19c-.58.02-1.07-.43-1.09-1.01-.01-.42.22-.79.56-.97h0c.08-.05.14-.07.16-.09h0c1.12-.65,1.88-1.69,2.2-2.86.32-1.18.21-2.49-.41-3.66-.03-.06-.06-.12-.1-.17-.01-.02-.02-.04-.03-.05-.05-.08-.1-.16-.15-.24-4.19,1.85-8.1,2.69-11.54,2.53-1.13,2.06-2.77,3.8-4.74,5.04-2.12,1.33-4.62,2.1-7.29,2.1s-5.18-.77-7.29-2.1c-1.98-1.24-3.62-2.98-4.74-5.04-3.44.16-7.35-.68-11.54-2.53h0Zm-16.81,31.89c-1.08.21-2.14.61-3.12,1.05h0c-.45.2-.99.07-1.28-.35-.34-.47-.23-1.13.24-1.47.87-.63,1.75-1.35,2.47-2.18.69-.79,1.23-1.68,1.5-2.67.27-.99.24-2.04.04-3.07-.21-1.08-.61-2.14-1.05-3.12h0c-.2-.45-.07-.99.34-1.29.47-.34,1.13-.23,1.47.24.63.87,1.35,1.75,2.18,2.47.79.69,1.68,1.23,2.67,1.5.99.27,2.04.24,3.07.04,1.08-.21,2.14-.61,3.12-1.05h0c.45-.2.99-.07,1.28.35.34.47.23,1.13-.24,1.47-.87.63-1.75,1.35-2.47,2.18-.69.79-1.23,1.68-1.5,2.67-.27.99-.24,2.04-.04,3.07.21,1.08.61,2.14,1.05,3.12h0c.2.45.07.99-.34,1.29-.47.34-1.13.23-1.47-.24-.63-.87-1.35-1.75-2.18-2.47-.79-.69-1.68-1.23-2.67-1.5-.99-.27-2.04-.24-3.07-.04h0Zm.39-2.19c1.06-.13,2.15-.09,3.21.19,1.07.29,2.02.8,2.88,1.44-.13-1.06-.09-2.15.19-3.21.29-1.07.8-2.02,1.44-2.88-1.06.13-2.15.09-3.21-.19-1.07-.29-2.02-.8-2.88-1.44.13,1.06.09,2.15-.19,3.21-.29,1.07-.8,2.02-1.44,2.88h0Zm83.51,3.24c-.98-.44-2.05-.84-3.12-1.05-1.03-.2-2.07-.23-3.07.04-.99.27-1.88.81-2.67,1.5-.83.72-1.55,1.6-2.18,2.47-.34.47-1,.58-1.47.24-.41-.3-.55-.84-.34-1.28h0c.44-.98.84-2.05,1.05-3.12.2-1.03.23-2.07-.04-3.07-.27-.99-.81-1.88-1.5-2.67-.72-.83-1.6-1.55-2.47-2.18-.47-.34-.58-1-.24-1.47.3-.41.84-.55,1.28-.34h0c.98.44,2.05.84,3.12,1.05,1.03.2,2.07.23,3.07-.04.99-.27,1.88-.81,2.67-1.5.83-.72,1.55-1.6,2.18-2.47.34-.47,1-.58,1.47-.24.41.3.55.84.34,1.28h0c-.44.98-.84,2.05-1.05,3.12-.2,1.03-.23,2.07.04,3.07.27.99.81,1.88,1.5,2.67.72.83,1.6,1.55,2.47,2.18.47.34.58,1,.24,1.47-.3.41-.84.55-1.28.34h0Zm-6.73-3.05c1.07-.29,2.15-.32,3.21-.19-.64-.86-1.15-1.82-1.44-2.88-.29-1.07-.32-2.15-.19-3.21-.86.64-1.82,1.15-2.88,1.44-1.07.29-2.15.32-3.21.19.64.86,1.16,1.81,1.44,2.88.29,1.07.32,2.15.19,3.21.86-.64,1.81-1.15,2.88-1.44h0ZM17.42,23.33c-1.08.21-2.14.61-3.12,1.05h0c-.45.2-.99.07-1.28-.35-.34-.47-.23-1.13.24-1.47.87-.63,1.75-1.35,2.47-2.18.69-.79,1.23-1.68,1.5-2.67.27-.99.24-2.04.04-3.07-.21-1.08-.61-2.14-1.05-3.12h0c-.2-.45-.07-.99.34-1.29.47-.34,1.13-.23,1.47.24.63.87,1.35,1.75,2.18,2.47.79.69,1.68,1.23,2.67,1.5.99.27,2.04.24,3.07.04,1.08-.21,2.14-.61,3.12-1.05h0c.45-.2.99-.07,1.28.35.34.47.23,1.13-.24,1.47-.87.63-1.75,1.35-2.47,2.18-.69.79-1.23,1.68-1.5,2.67-.27.99-.24,2.04-.04,3.07.21,1.08.61,2.14,1.05,3.12h0c.2.45.07.99-.34,1.29-.47.34-1.13.23-1.47-.24-.63-.87-1.35-1.75-2.18-2.47-.79-.69-1.68-1.23-2.67-1.5-.99-.27-2.04-.24-3.07-.04h0Zm.39-2.19c1.06-.13,2.15-.09,3.21.19,1.07.29,2.02.8,2.88,1.44-.13-1.06-.09-2.15.19-3.21.29-1.07.8-2.02,1.44-2.88-1.06.13-2.15.09-3.21-.19-1.07-.29-2.02-.8-2.88-1.44.13,1.06.09,2.15-.19,3.21-.29,1.07-.8,2.02-1.44,2.88h0Zm62.9,3.24c-.98-.44-2.05-.84-3.12-1.05-1.03-.2-2.07-.23-3.07.04-.99.27-1.88.81-2.67,1.5-.83.72-1.55,1.6-2.18,2.47-.34.47-1,.58-1.47.24-.41-.3-.55-.84-.34-1.28h0c.44-.98.84-2.05,1.05-3.12.2-1.03.23-2.07-.04-3.07-.27-.99-.81-1.88-1.5-2.67-.72-.83-1.6-1.55-2.47-2.18-.47-.34-.58-1-.24-1.47.3-.41.84-.55,1.28-.34h0c.98.44,2.05.84,3.12,1.05,1.03.2,2.07.23,3.07-.04.99-.27,1.88-.81,2.67-1.5.83-.72,1.55-1.6,2.18-2.47.34-.47,1-.58,1.47-.24.41.3.55.84.34,1.28h0c-.44.98-.84,2.05-1.05,3.12-.2,1.03-.23,2.07.04,3.07.27.99.81,1.88,1.5,2.67.72.83,1.6,1.55,2.47,2.18.47.34.58,1,.24,1.47-.3.41-.84.55-1.28.34h0Zm-6.73-3.05c1.07-.29,2.15-.32,3.21-.19-.64-.86-1.16-1.82-1.44-2.88-.29-1.07-.32-2.15-.19-3.21-.86.64-1.81,1.16-2.88,1.44-1.07.29-2.15.32-3.21.19.64.86,1.15,1.82,1.44,2.88.29,1.07.32,2.15.19,3.21.86-.64,1.82-1.15,2.88-1.44h0Zm-16.72,22.34c-.92,1.42-2.14,2.62-3.58,3.53-1.78,1.12-3.9,1.77-6.17,1.77s-4.39-.65-6.17-1.77c-1.43-.9-2.66-2.11-3.58-3.53,3.06-.58,5.66-2.06,7.62-4.44.58-.7,1.1-1.48,1.57-2.34.18.02.37.02.56.02s.37,0,.56-.02c.47.86.99,1.64,1.57,2.34,1.97,2.38,4.56,3.86,7.62,4.44h0Zm-12.42-7.32c-.33.55-.69,1.07-1.08,1.54-2,2.41-4.79,3.72-8.14,3.93-3.47.22-7.54-.74-11.95-2.85-2.42-1.16-4.95-2.68-7.54-4.55,7.54.74,13.27-2.34,17.91-4.84,3.17-1.71,5.77-3.1,7.86-2.57-.59.98-.93,2.13-.93,3.36,0,1.81.73,3.44,1.92,4.63.56.56,1.22,1.02,1.96,1.35h0Zm-1.47-11.04c1.13-.92,2.57-1.48,4.14-1.48s3.01.55,4.14,1.48c3.08-1.48,6.31.26,10.33,2.42,5.17,2.78,11.78,6.34,20.73,3.83.56-.16,1.14.17,1.3.73.12.41-.03.84-.34,1.1h0c-3.65,3.02-7.24,5.39-10.67,7.12.02.03.04.06.05.09.01.02.02.04.04.06.05.08.09.17.14.25.87,1.66,1.03,3.52.57,5.2-.27.97-.74,1.88-1.4,2.66.96.34,1.83.89,2.54,1.6,1.24,1.22,2.03,2.92,2.1,4.79,0,.15,0,.24,0,.28s0,.13,0,.28c-.07,1.88-.86,3.57-2.1,4.79-.72.71-1.58,1.26-2.54,1.6.66.78,1.14,1.69,1.4,2.66.46,1.68.3,3.54-.57,5.2-.02.04-.06.1-.1.19-.01.02-.02.04-.03.06-.04.07-.09.15-.14.24-1,1.59-2.53,2.66-4.22,3.1-.97.25-2,.3-3,.11.19,1,.14,2.03-.11,3-.44,1.69-1.51,3.22-3.1,4.22-.09.06-.17.1-.24.15-.08.05-.17.09-.25.14-1.66.87-3.52,1.03-5.19.57-.97-.27-1.88-.74-2.66-1.4-.34.96-.89,1.83-1.6,2.54-1.22,1.24-2.92,2.03-4.79,2.1-.15,0-.24,0-.28,0s-.13,0-.28,0c-1.88-.07-3.57-.86-4.79-2.1-.71-.72-1.26-1.58-1.6-2.54-.78.66-1.69,1.14-2.66,1.4-1.68.46-3.54.3-5.19-.57-.04-.02-.1-.06-.19-.1-.02,0-.04-.02-.06-.03-.07-.04-.15-.09-.24-.15-1.59-1-2.66-2.53-3.1-4.22-.25-.97-.3-2-.11-3-1,.19-2.03.14-3-.11-1.68-.44-3.22-1.51-4.22-3.1-.05-.09-.1-.17-.14-.24-.05-.08-.09-.17-.14-.25-.87-1.66-1.03-3.52-.57-5.2.27-.97.74-1.88,1.4-2.66-.96-.34-1.83-.89-2.54-1.6-1.24-1.22-2.03-2.92-2.1-4.79,0-.15,0-.24,0-.28s0-.13,0-.28c.07-1.88.86-3.57,2.1-4.79.72-.71,1.58-1.26,2.54-1.6-.66-.78-1.14-1.69-1.4-2.66-.46-1.68-.3-3.54.57-5.2.04-.08.09-.16.14-.25h0s.06-.1.09-.15c-3.43-1.73-7.02-4.1-10.67-7.12h0c-.31-.26-.46-.68-.34-1.1.16-.56.74-.89,1.3-.73,8.94,2.51,15.56-1.05,20.73-3.83,4.02-2.16,7.26-3.9,10.33-2.42h0Zm6.81,11.04c.73-.33,1.4-.79,1.96-1.35,1.18-1.18,1.92-2.82,1.92-4.63,0-1.23-.34-2.38-.93-3.36,2.09-.53,4.69.86,7.86,2.57,4.64,2.49,10.37,5.58,17.91,4.84-2.59,1.87-5.11,3.39-7.54,4.55-4.41,2.12-8.48,3.07-11.95,2.85-3.35-.21-6.15-1.52-8.14-3.93-.39-.47-.75-.99-1.08-1.54h0Zm.47-9.11c-.8-.8-1.91-1.3-3.14-1.3s-2.33.5-3.14,1.3c-.8.8-1.3,1.91-1.3,3.14s.5,2.33,1.3,3.14c.8.8,1.91,1.3,3.14,1.3s2.33-.5,3.14-1.3c.8-.8,1.3-1.91,1.3-3.14s-.5-2.33-1.3-3.14Z" />
</svg>