<svg xmlns="http://www.w3.org/2000/svg" data-name="Layer 1" viewBox="0 0 96 120" x="0px" y="0px">
  <defs>
    <style type="text/css">
      .face {
        fill: currentColor;
        fill-rule: nonzero
      }
    </style>
  </defs>
  <path class="face"
    d="M46.327,40.054H26.357a1.179,1.179,0,0,0-1.179,1.179V84.05a1.179,1.179,0,0,0,1.179,1.179h19.97a1.178,1.178,0,0,0,1.178-1.179V41.233A1.178,1.178,0,0,0,46.327,40.054Zm-1.179,2.358v11.6a11.583,11.583,0,0,1-8.351-.3,14.022,14.022,0,0,0-9.261-.6v-10.7ZM27.536,82.871V55.584a11.592,11.592,0,0,1,8.35.3,14.013,14.013,0,0,0,9.262.6V82.871Zm8.806-64.807A3.445,3.445,0,1,0,32.9,14.619,3.449,3.449,0,0,0,36.342,18.064Zm0-4.532a1.087,1.087,0,1,1-1.087,1.087A1.089,1.089,0,0,1,36.342,13.532Zm20.073,28.74a17.085,17.085,0,0,0-3.551.376v-3.9a4.054,4.054,0,0,0-3.665-4.03V30.225a3.111,3.111,0,0,0-3.108-3.108h-.647v-3.1A2.553,2.553,0,0,0,43.278,21.5V8.378a2.969,2.969,0,0,0-3.865-2.827,9.964,9.964,0,0,1-6.143,0,2.969,2.969,0,0,0-3.864,2.827V21.5a2.554,2.554,0,0,0-2.167,2.519v3.1h-.646a3.112,3.112,0,0,0-3.109,3.108v4.489a4.054,4.054,0,0,0-3.665,4.03v47.8a4.053,4.053,0,0,0,4.049,4.048H48.816a4.054,4.054,0,0,0,3.69-2.386,17.093,17.093,0,0,0,3.909.455c10.9,0,19.766-10.4,19.766-23.193S67.314,42.272,56.415,42.272ZM32.009,7.892a.616.616,0,0,1,.557-.091,12.4,12.4,0,0,0,7.552,0,.613.613,0,0,1,.556.091.591.591,0,0,1,.246.486V21.467H31.764V8.378A.593.593,0,0,1,32.009,7.892ZM29.6,24.018a.194.194,0,0,1,.194-.193h13.1a.193.193,0,0,1,.193.193v3.1H29.6Zm-3,5.457h19.5a.75.75,0,0,1,.75.75V34.7h-21V30.225A.751.751,0,0,1,26.593,29.475ZM50.506,86.54a1.692,1.692,0,0,1-1.69,1.69H23.868a1.693,1.693,0,0,1-1.691-1.69v-47.8a1.693,1.693,0,0,1,1.691-1.691H48.816a1.693,1.693,0,0,1,1.69,1.691Zm5.909-.241a14.768,14.768,0,0,1-3.551-.437V45.067a14.719,14.719,0,0,1,3.551-.438c9.6,0,17.408,9.347,17.408,20.835S66.014,86.3,56.415,86.3Zm3.692-36.63a1.178,1.178,0,0,1,0,1.667l-2.858,2.858a1.179,1.179,0,0,1-1.667-1.667l2.858-2.858A1.178,1.178,0,0,1,60.107,49.669Zm0,8.721a1.178,1.178,0,0,1,0,1.667l-2.858,2.858a1.179,1.179,0,0,1-1.667-1.667L58.44,58.39A1.179,1.179,0,0,1,60.107,58.39Zm0,8.722a1.178,1.178,0,0,1,0,1.667l-2.858,2.858a1.179,1.179,0,0,1-1.667-1.668l2.858-2.857A1.178,1.178,0,0,1,60.107,67.112Zm0,8.721a1.178,1.178,0,0,1,0,1.667l-2.858,2.858a1.179,1.179,0,0,1-1.667-1.667l2.858-2.858A1.179,1.179,0,0,1,60.107,75.833Zm3.91-18.741a1.181,1.181,0,0,1,0-1.668l2.859-2.858a1.179,1.179,0,0,1,1.667,1.668l-2.858,2.858a1.181,1.181,0,0,1-1.668,0Zm4.526,4.2a1.179,1.179,0,0,1,0,1.667l-2.858,2.858a1.179,1.179,0,0,1-1.668-1.667l2.859-2.858A1.179,1.179,0,0,1,68.543,61.288Zm0,8.722a1.179,1.179,0,0,1,0,1.667l-2.858,2.858a1.179,1.179,0,0,1-1.668-1.668l2.859-2.858A1.178,1.178,0,0,1,68.543,70.01Z" />
</svg>