<svg xmlns="http://www.w3.org/2000/svg" xmlns:xlink="http://www.w3.org/1999/xlink"
  xmlns:xodm="http://www.corel.com/coreldraw/odm/2003" xml:space="preserve" version="1.1"
  style="shape-rendering:geometricPrecision;text-rendering:geometricPrecision;image-rendering:optimizeQuality;"
  viewBox="0 0 8.4666 10.58325" x="0px" y="0px" fill-rule="evenodd" clip-rule="evenodd">
  <defs>
    <style type="text/css">
      .fil0 {
        fill: currentColor;
        fill-rule: nonzero
      }
    </style>
  </defs>
  <g>
    <path class="fil0"
      d="M4.2333 5.7983c0.0702,0 0.1271,0.0569 0.1271,0.127 0,0.0701 -0.0569,0.127 -0.127,0.127 -0.0703,0 -0.1272,-0.0569 -0.1272,-0.127 0,-0.0701 0.0569,-0.127 0.1271,-0.127zm-2.6793 0.3721c0.2287,-0.229 0.5286,-0.3435 0.8284,-0.3435 0.2994,0 0.5992,0.1145 0.8279,0.3431l0.0076 0.0077c0.1323,0.1346 0.2256,0.2933 0.2798,0.4617l0.3044 -0.4532c-0.2333,-0.3178 -0.4476,-0.6442 -0.6426,-0.9791 -0.5485,-0.9418 -0.9458,-1.9517 -1.1913,-3.0288 -0.0281,-0.1232 -0.0405,-0.2415 -0.037,-0.3596 0.0035,-0.1183 0.0229,-0.2359 0.0583,-0.3576l0.3125 -1.0731c0.0194,-0.0671 0.0896,-0.1057 0.1567,-0.0863 0.0391,0.0113 0.0685,0.0398 0.0824,0.0749l1.9248 4.8177c0.072,-0.1134 0.1424,-0.2273 0.2111,-0.3433l-0.2424 -0.6562c-0.01,-0.0283 -0.0104,-0.0602 0.0015,-0.0903l0.1971 -0.4954c0.0122,-0.0337 0.0386,-0.062 0.0748,-0.0755 0.0655,-0.0244 0.1384,0.0089 0.1628,0.0744l0.1928 0.5184 0.0785 -0.1654 -0.295 -0.7987c-0.0102,-0.0281 -0.0107,-0.0598 0.001,-0.0898l0.1968 -0.5012c0.0124,-0.0338 0.039,-0.0621 0.0754,-0.0755 0.0657,-0.0241 0.1387,0.0097 0.1628,0.0754l0.2026 0.549 0.0663 -0.1917 -0.2937 -0.7953c-0.01,-0.0283 -0.0104,-0.0602 0.0015,-0.0903l0.1957 -0.4912c0.0115,-0.0361 0.039,-0.0667 0.0772,-0.0807 0.0657,-0.0241 0.1387,0.0097 0.1628,0.0754l0.1394 0.377 0.0013 -0.0058c0.0183,-0.0803 0.018,-0.162 0.0075,-0.2439l-0.0005 -0.0035c-0.0115,-0.0861 -0.0342,-0.1736 -0.0594,-0.2608l-0.1121 -0.3131c-0.0095,-0.0281 -0.0098,-0.0596 0.002,-0.0893l0.2518 -0.6304c0.0139,-0.0351 0.0433,-0.0636 0.0824,-0.0749 0.0671,-0.0194 0.1373,0.0192 0.1567,0.0863l0.2578 0.8856c0.0382,0.1314 0.075,0.3168 0.0905,0.4942 0.013,0.1482 0.0118,0.2957 -0.0145,0.411 -0.161,0.7055 -0.3872,1.3824 -0.678,2.0298 -0.2821,0.6277 -0.6251,1.2281 -1.0289,1.8008l0.2132 0.5336c0.0559,-0.1324 0.1373,-0.2567 0.244,-0.3653l0.007 -0.0076c0.2293,-0.2287 0.5291,-0.3432 0.8285,-0.3432 0.2998,0 0.5997,0.1145 0.8283,0.3431 0.2288,0.2294 0.3433,0.5291 0.3433,0.8285 0,0.2963 -0.1122,0.593 -0.3361,0.8208l-0.007 0.0076c-0.2292,0.2287 -0.5292,0.3432 -0.8285,0.3432 -0.2996,0 -0.5998,-0.1144 -0.8285,-0.3431l-0.0054 -0.0055c-0.3672,-0.3485 -0.7062,-0.7099 -1.0171,-1.0838 -0.1438,0.1732 -0.2932,0.3429 -0.4478,0.5092 -0.1828,0.1966 -0.3746,0.3898 -0.5745,0.5796l-0.0025 0.0025 -0.0003 0.0003c-0.2283,0.2273 -0.5273,0.3408 -0.8257,0.3408 -0.2993,0 -0.5993,-0.1145 -0.8281,-0.3434l-0.0074 -0.0074c-0.2239,-0.2278 -0.3361,-0.5245 -0.3361,-0.8208 0,-0.2994 0.1145,-0.5991 0.3432,-0.8281zm3.0264 -0.6895l0.0985 0.2465c0.354,-0.5186 0.6575,-1.0593 0.9103,-1.622 0.2843,-0.6326 0.5052,-1.2938 0.6622,-1.9827 0.0196,-0.0864 0.0196,-0.2071 0.0085,-0.3331 -0.0143,-0.1636 -0.047,-0.3302 -0.0805,-0.4456l-0.1551 -0.5328 -0.0975 0.2442 0.095 0.2653 0.005 0.0182c0.0283,0.098 0.054,0.1972 0.0674,0.2975l0.0005 0.0043c0.0141,0.1093 0.0141,0.2201 -0.0115,0.3325l-0.0492 0.2073 -0.053 0.2054c-0.018,0.0676 -0.0876,0.1078 -0.1552,0.0898 -0.0414,-0.011 -0.0725,-0.0414 -0.0863,-0.0788l-0.1677 -0.4535 -0.0587 0.1473 0.2925 0.7921c0.0102,0.0279 0.01,0.0571 0.0014,0.0834 -0.0294,0.0892 -0.0624,0.1838 -0.0986,0.2834 -0.0362,0.0997 -0.0716,0.1932 -0.1059,0.28 -0.0257,0.0652 -0.0995,0.0972 -0.1647,0.0715 -0.0364,-0.0144 -0.0625,-0.0437 -0.0739,-0.0782l-0.2036 -0.5517 -0.0584 0.1487 0.2963 0.8023c0.013,0.0353 0.0092,0.0728 -0.0073,0.1036 -0.0401,0.0878 -0.0774,0.1672 -0.1115,0.2372l-0.0034 0.0065c-0.0377,0.0773 -0.0771,0.1554 -0.1175,0.2334 -0.032,0.0621 -0.1085,0.0866 -0.1706,0.0546 -0.0294,-0.0151 -0.0503,-0.0402 -0.0609,-0.069l-0.1788 -0.4841 -0.0588 0.1479 0.2463 0.6669c0.0142,0.0388 0.0083,0.0802 -0.0126,0.1125l-0.0809 0.1371 -0.0863 0.1419 -0.1629 0.254c-0.0038,0.0058 -0.0081,0.0112 -0.0126,0.0162zm1.8297 1.1917c-0.0899,-0.0899 -0.208,-0.135 -0.3259,-0.135 -0.1179,0 -0.236,0.0451 -0.3259,0.135 -0.0899,0.0899 -0.135,0.208 -0.135,0.3259 0,0.1179 0.0451,0.236 0.135,0.3259 0.0899,0.0899 0.208,0.135 0.3259,0.135 0.1179,0 0.236,-0.0451 0.3259,-0.135 0.0899,-0.0899 0.135,-0.208 0.135,-0.3259 0,-0.1179 -0.0451,-0.236 -0.135,-0.3259zm-0.3259 -0.389c0.183,0 0.366,0.0699 0.5055,0.2094 0.1395,0.1395 0.2094,0.3227 0.2094,0.5055 0,0.183 -0.0699,0.366 -0.2094,0.5055 -0.1395,0.1395 -0.3225,0.2094 -0.5055,0.2094 -0.1828,0 -0.366,-0.0699 -0.5055,-0.2094 -0.1395,-0.1395 -0.2094,-0.3225 -0.2094,-0.5055 0,-0.1828 0.0699,-0.366 0.2094,-0.5055 0.1395,-0.1395 0.3227,-0.2094 0.5055,-0.2094zm-2.121 0.1168l-0.4093 0.6093c-0.0004,0.0406 -0.0029,0.0812 -0.0075,0.1216l0.0534 -0.057c0.1643,-0.1766 0.3213,-0.3558 0.4705,-0.5371 -0.0361,-0.0455 -0.0718,-0.091 -0.1071,-0.1368zm0.9494 0.5941l-2.4703 -6.1834 -0.2098 0.7204c-0.0293,0.101 -0.0455,0.1978 -0.0483,0.2942 -0.0028,0.0964 0.0076,0.1941 0.031,0.297 0.2396,1.0512 0.6276,2.0373 1.1635,2.9574 0.4217,0.7241 0.9357,1.408 1.5415,2.0514 -0.0052,-0.0457 -0.0076,-0.091 -0.0076,-0.137zm1.8205 -0.6448c-0.1792,-0.1791 -0.4142,-0.2688 -0.6489,-0.2688 -0.235,0 -0.47,0.0896 -0.649,0.2685l-0.0062 0.0061c-0.1748,0.1783 -0.2624,0.4107 -0.2624,0.643 0,0.234 0.0888,0.4682 0.2662,0.6469l0.0023 0.0022 0 0.0001 0.0023 0.0023c0.1789,0.1774 0.413,0.2661 0.6468,0.2661 0.2351,0 0.4701,-0.0894 0.6488,-0.2682l0.0064 -0.0064c0.1748,-0.1783 0.2624,-0.4107 0.2624,-0.643 0,-0.235 -0.0896,-0.4699 -0.2687,-0.6488zm-4.8562 0.1433c0.1395,-0.1395 0.3225,-0.2094 0.5055,-0.2094 0.1828,0 0.366,0.0699 0.5055,0.2094 0.1395,0.1395 0.2094,0.3227 0.2094,0.5055 0,0.183 -0.0699,0.366 -0.2094,0.5055 -0.1395,0.1395 -0.3227,0.2094 -0.5055,0.2094 -0.183,0 -0.366,-0.0699 -0.5055,-0.2094 -0.1395,-0.1395 -0.2094,-0.3225 -0.2094,-0.5055 0,-0.1828 0.0699,-0.366 0.2094,-0.5055zm0.5055 0.0446c-0.1179,0 -0.236,0.0451 -0.3259,0.135 -0.0899,0.0899 -0.135,0.208 -0.135,0.3259 0,0.1179 0.0451,0.236 0.135,0.3259 0.0899,0.0899 0.208,0.135 0.3259,0.135 0.1179,0 0.236,-0.0451 0.3259,-0.135 0.0899,-0.0899 0.135,-0.208 0.135,-0.3259 0,-0.1179 -0.0451,-0.236 -0.135,-0.3259 -0.0899,-0.0899 -0.208,-0.135 -0.3259,-0.135zm-0.6487 -0.188c-0.1793,0.179 -0.2689,0.4139 -0.2689,0.6489 0,0.2323 0.0876,0.4647 0.2624,0.643l0.0063 0.0058c0.1788,0.1794 0.4138,0.2688 0.6489,0.2688 0.2348,0 0.4698,-0.0896 0.6489,-0.2687 0.1791,-0.1788 0.2687,-0.4139 0.2687,-0.6489 0,-0.2323 -0.0876,-0.4647 -0.2624,-0.643l-0.0063 -0.0058c-0.1789,-0.1792 -0.4139,-0.2688 -0.6489,-0.2688 -0.2347,0 -0.4697,0.0897 -0.6487,0.2687z" />
  </g>
</svg>